<svg id="object" xmlns="http://www.w3.org/2000/svg" viewBox="0 0 144.49 181.18"><defs><style>.cls-1{fill:#fff;}</style></defs><title>android</title><path class="cls-1" d="M1330.24-134a8.14,8.14,0,0,0-8.17,8.14v39.49a8.19,8.19,0,0,0,8.17,8.17,8.18,8.18,0,0,0,8.16-8.17v-39.49A8.12,8.12,0,0,0,1330.24-134Z" transform="translate(-1322.06 200.84)"/><path class="cls-1" d="M1458.36-134a8.14,8.14,0,0,0-8.15,8.14v39.49a8.19,8.19,0,0,0,8.15,8.17,8.21,8.21,0,0,0,8.19-8.17v-39.49A8.16,8.16,0,0,0,1458.36-134Z" transform="translate(-1322.06 200.84)"/><path class="cls-1" d="M1345.73-134v73.16A12.25,12.25,0,0,0,1358-48.59h13.1v20.75a8.19,8.19,0,0,0,8.17,8.17,8.19,8.19,0,0,0,8.17-8.17V-48.59h13.94v20.75a8.19,8.19,0,0,0,8.16,8.17,8.19,8.19,0,0,0,8.17-8.17V-48.59h13.1a12.25,12.25,0,0,0,12.26-12.24v-72.86a1.61,1.61,0,0,0,0-.3h-97.29Z" transform="translate(-1322.06 200.84)"/><path class="cls-1" d="M1418.14-183.59l8.73-16.27-1.79-1-8.75,16.27a48.24,48.24,0,0,0-22-5.26,47.9,47.9,0,0,0-20.92,4.78L1365-200.84l-1.81,1,8.45,15.71a48.43,48.43,0,0,0-25.53,42.33h96.63A48.34,48.34,0,0,0,1418.14-183.59Zm-48.65,23.14a4.64,4.64,0,0,1-4.61-4.59,4.65,4.65,0,0,1,4.61-4.63,4.64,4.64,0,0,1,4.61,4.63A4.63,4.63,0,0,1,1369.49-160.45Zm49,0a4.6,4.6,0,0,1-4.57-4.59,4.6,4.6,0,0,1,4.57-4.63,4.61,4.61,0,0,1,4.59,4.63A4.6,4.6,0,0,1,1418.47-160.45Z" transform="translate(-1322.06 200.84)"/></svg>