<svg id="object" xmlns="http://www.w3.org/2000/svg" width="204.47" height="204.47" viewBox="0 0 204.47 204.47"><defs><style>.cls-1{fill:#fff;}</style></defs><title>argo</title><path class="cls-1" d="M762.94-148.34A30.41,30.41,0,0,0,732.57-118v4.26h60.74V-118A30.41,30.41,0,0,0,762.94-148.34Z" transform="translate(-699.48 221.54)"/><path class="cls-1" d="M801.71-221.54A102.23,102.23,0,0,0,699.48-119.31,102.23,102.23,0,0,0,801.71-17.07,102.23,102.23,0,0,0,903.95-119.31,102.23,102.23,0,0,0,801.71-221.54ZM801.34-82.18h-8v-23.5H732.57v23.5h-8V-118a38.44,38.44,0,0,1,38.4-38.4,38.44,38.44,0,0,1,38.4,38.4v35.78Zm43.14-66.16A30.41,30.41,0,0,0,814.11-118v35.78h-8v-74.25h8v15a38.36,38.36,0,0,1,30.37-14.93,38.44,38.44,0,0,1,38.4,38.4h-8A30.41,30.41,0,0,0,844.48-148.34Z" transform="translate(-699.48 221.54)"/></svg>