<svg id="object" xmlns="http://www.w3.org/2000/svg" viewBox="0 0 130.54 130.54"><defs><style>.cls-1{fill:#fff;}</style></defs><title>bitc</title><path class="cls-1" d="M-1181.73,150.39a54.09,54.09,0,0,0-54,54,54.08,54.08,0,0,0,54,54,54.08,54.08,0,0,0,54-54A54.09,54.09,0,0,0-1181.73,150.39Zm20,70.72a13.73,13.73,0,0,1-6.25,4.72,20.81,20.81,0,0,1-3.44,1V235h-7.79v-7.56h-5V235H-1192v-7.56h-11.88v-6.38h1.82a6.53,6.53,0,0,0,2.45-.31,1.86,1.86,0,0,0,.91-0.89,7.46,7.46,0,0,0,.26-2.57V191.59a7.52,7.52,0,0,0-.26-2.61,2,2,0,0,0-.91-0.88,5.79,5.79,0,0,0-2.45-.34h-1.82v-6.36H-1192v-7.58h7.79v7.58h5v-7.58h7.79V182a15.15,15.15,0,0,1,3.08.86,11.58,11.58,0,0,1,5.29,4,9.83,9.83,0,0,1,1.85,5.76,9.89,9.89,0,0,1-1,4.33,11,11,0,0,1-2.81,3.62,14.75,14.75,0,0,1-4.85,2.58,19.24,19.24,0,0,1,5,1.82,10.28,10.28,0,0,1,3.94,3.88,11.18,11.18,0,0,1,1.43,5.55A11.41,11.41,0,0,1-1161.73,221.11Z" transform="translate(1247 -139.14)"/><path class="cls-1" d="M-1176.19,199.38a5.64,5.64,0,0,0,2.84-2,5.15,5.15,0,0,0,1-3.1,5.32,5.32,0,0,0-.91-3.1,4.93,4.93,0,0,0-2.61-1.82,23.21,23.21,0,0,0-6.15-.55h-5V200h5A19.06,19.06,0,0,0-1176.19,199.38Z" transform="translate(1247 -139.14)"/><path class="cls-1" d="M-1175.3,207.54a17.92,17.92,0,0,0-5.84-.71h-5.94v10a11.57,11.57,0,0,0,.16,2.47,1,1,0,0,0,.55.65,7.17,7.17,0,0,0,2.06.18h3.36a17.93,17.93,0,0,0,4.85-.55,6.41,6.41,0,0,0,3.28-2.26,6.57,6.57,0,0,0,1.35-4.12,6.24,6.24,0,0,0-1-3.46A5.73,5.73,0,0,0-1175.3,207.54Z" transform="translate(1247 -139.14)"/><path class="cls-1" d="M-1181.73,139.14A65.27,65.27,0,0,0-1247,204.41a65.27,65.27,0,0,0,65.27,65.27,65.27,65.27,0,0,0,65.27-65.27A65.27,65.27,0,0,0-1181.73,139.14Zm0,121.29a56.08,56.08,0,0,1-56-56,56.09,56.09,0,0,1,56-56,56.09,56.09,0,0,1,56,56A56.08,56.08,0,0,1-1181.73,260.43Z" transform="translate(1247 -139.14)"/></svg>