<svg id="object" xmlns="http://www.w3.org/2000/svg" viewBox="0 0 134.12 134.12"><defs><style>.cls-1{fill:#fff;}</style></defs><title>g</title><path class="cls-1" d="M-1125.7,418.49a67.06,67.06,0,0,0-67.06,67.06,67.06,67.06,0,0,0,67.06,67.06,67.06,67.06,0,0,0,67.06-67.06A67.06,67.06,0,0,0-1125.7,418.49Zm31.87,60.52c-1.86,11.65-12.16,16.08-22.09,17.1,3.42,2.15,4.4,4.86,4.4,12.17s-0.1,8.3-.08,10c0,2.76,4.08,4.08,3.93,5s-3.38.74-4.9,0.21c-4.28-1.49-3.85-5.06-3.85-5.06l-0.64-9.77s-0.37-5.26-2.16-5.26v16c0,3.47,2.94,4.53,2.94,5.82,0,2.21-4.2-.21-5.57-1.59-2.09-2.1-1.73-6.54-1.68-10.06s0-10.83,0-10.83l-1.39,0s0.6,16.23-.73,19.19c-1.72,3.79-6.9,5.1-6.9,3.37,0-1.16,1.28-.79,2-3.4,0.6-2.22.4-18.77,0.4-18.77s-1.66,1-1.66,4.09c0,1.42,0,9.52,0,11.93,0,3-4.31,4.76-6.38,4.76-1,0-2.35-.05-2.35-0.61,0-1.4,3.94-2.22,3.94-5.14,0-2.54-.05-9-0.05-9a32,32,0,0,1-4.82.34c-7.14,0-9.4-4.56-10.48-7.11a12.43,12.43,0,0,0-5.14-6.13c-1.18-.77-1.46-1.67-0.09-1.93,6.32-1.19,7.94,7.17,12.16,8.5,3,0.95,6.89.54,8.82-.71a9.18,9.18,0,0,1,3.63-5.93c-10.19-1-20.56-6.62-23.05-19.71a40.75,40.75,0,0,1-.28-4.72c0-6.91,2.16-9.51,5-13.2-2.21-7.88.79-13.27,0.79-13.27s4.65-1,13.43,5.33c4.76-2,17.46-2.21,23.47-.45,3.69-2.43,10.43-5.89,13.15-4.93,0.74,1.18,2.32,4.64,1,12.24,0.92,1.66,5.73,5.21,5.74,15.25A46.39,46.39,0,0,1-1093.83,479Z" transform="translate(1192.76 -418.49)"/></svg>