<svg id="object" xmlns="http://www.w3.org/2000/svg" width="137.78" height="160.55" viewBox="0 0 137.78 160.55"><defs><style>.cls-1{fill:#fdfdfd;fill-rule:evenodd;}</style></defs><title>ios</title><path class="cls-1" d="M1152.33-160.68c5.56-.07,10.53,1.38,15.43,3.1,3,1,6,2.17,9.05,2.95a26.47,26.47,0,0,0,16.2-1.19,83.08,83.08,0,0,1,11.5-3.85c11.91-2.73,22.58,0,32.17,7.32a41.74,41.74,0,0,1,7.13,6.79c0.86,1,.82,1.19-0.3,1.9-9.93,6-15.75,14.89-16.76,26.5a34.88,34.88,0,0,0,9.87,28.22,34.28,34.28,0,0,0,11.48,7.88c1.23,0.49,1.29.67,0.77,1.87a119.56,119.56,0,0,1-19.35,30.87,36.33,36.33,0,0,1-9.63,8c-5.82,3.25-11.83,3.29-17.9.71-2.5-1-4.91-2.35-7.48-3.21a35.13,35.13,0,0,0-24.75,1c-2.13.9-4.22,1.87-6.38,2.65-7.84,2.91-14.89,1.12-21.31-4A55.42,55.42,0,0,1,1132-53.89a107.67,107.67,0,0,1-15.77-30,89.46,89.46,0,0,1-4.67-23.85c-0.5-9,.21-17.81,3.79-26.13,5.65-13,15.23-21.84,29-25.83A25.06,25.06,0,0,1,1152.33-160.68Z" transform="translate(-1111.4 198.26)"/><path class="cls-1" d="M1211.06-194.65a35.67,35.67,0,0,1-6.36,20,34.12,34.12,0,0,1-18.14,13.77,23.68,23.68,0,0,1-7.2,1.16,1.22,1.22,0,0,1-1.42-1.34,28.77,28.77,0,0,1,3-15.79c4.66-9.89,12.39-16.31,22.54-20a36,36,0,0,1,6.31-1.42c0.91-.19,1.1.41,1.16,1.08A14.35,14.35,0,0,1,1211.06-194.65Z" transform="translate(-1111.4 198.26)"/></svg>