<svg xmlns="http://www.w3.org/2000/svg" viewBox="0 0 112 112"><defs><style>.cls-1{fill:#fff;}.cls-2{fill:#0c78b8;}</style></defs><title>linkedin-blue</title><g id="Слой_2" data-name="Слой 2"><g id="object"><rect class="cls-1" x="19.98" y="17" width="74.75" height="74.75"/><path class="cls-2" d="M56,0a56,56,0,1,0,56,56A56,56,0,0,0,56,0ZM39.74,51.21V86.32H24.25V42.12H39.74ZM32,35.45a7.74,7.74,0,1,1,7.74-7.74A7.74,7.74,0,0,1,32,35.45h0ZM90.61,62V86.32H77.34V64.8c0-5.14-.57-11.75-7.61-11.75s-8.24,5.6-8.24,11.38V86.36H48.58V42.12H60.91v6h.17c1.84-3.49,6.33-6,13-6,11.27,0,15.1,5.24,16.15,13.58A51.46,51.46,0,0,1,90.57,62h0Z"/></g></g></svg>