<svg id="object" xmlns="http://www.w3.org/2000/svg" viewBox="0 0 112.04 112.04"><defs><style>.cls-1{fill:#fff;}</style></defs><title>link</title><path class="cls-1" d="M-824.08,279.79a56,56,0,0,0-56,56,56,56,0,0,0,56,56,56,56,0,0,0,56-56A56,56,0,0,0-824.08,279.79ZM-840.34,331v35.11h-15.49V321.91h15.49V331Zm-7.74-15.76a7.74,7.74,0,0,1-7.74-7.74,7.74,7.74,0,0,1,7.74-7.74,7.74,7.74,0,0,1,7.74,7.74A7.74,7.74,0,0,1-848.08,315.27Zm58.61,26.56v24.31h-13.27V344.59c0-5.14-.57-11.75-7.61-11.75s-8.24,5.6-8.24,11.38v21.93H-831.5V321.91h12.33v6H-819c1.84-3.49,6.33-6,13-6,11.27,0,15.1,5.24,16.15,13.58a51.45,51.45,0,0,1,.34,6.35h0Z" transform="translate(880.1 -279.79)"/></svg>