<svg id="object" xmlns="http://www.w3.org/2000/svg" width="139.15" height="166.75" viewBox="0 0 139.15 166.75"><defs><style>.cls-1{fill:#fff;}</style></defs><title>login</title><path class="cls-1" d="M1058.78-47.06a35.07,35.07,0,0,0-35.06-35.06h-9.06a8.5,8.5,0,0,1-8.5-8.5,6.44,6.44,0,0,1,2-4.63,61.31,61.31,0,0,0,12.9-19.44,3.58,3.58,0,0,0,2.14.83c5.08,0,11-11.23,11-18.89s-0.7-13.86-5.78-13.86a8,8,0,0,0-1.89.27c-0.36-20.76-5.61-46.67-37.31-46.67-33.08,0-36.94,25.85-37.31,46.59a8,8,0,0,0-1.37-.19c-5.09,0-5.79,6.21-5.79,13.86s6,18.89,11.05,18.89a3.51,3.51,0,0,0,1.75-.49A61.26,61.26,0,0,0,970.3-95.24a6.5,6.5,0,0,1,2,4.63,8.5,8.5,0,0,1-8.5,8.5h-9.05A35.07,35.07,0,0,0,919.63-47v9.71A11.07,11.07,0,0,0,930.7-26.26h117a11.07,11.07,0,0,0,11.07-11.07v-9.72Z" transform="translate(-919.63 193.01)"/></svg>