<svg id="object" xmlns="http://www.w3.org/2000/svg" viewBox="0 0 134.12 134.12"><defs><style>.cls-1{fill:#fff;}</style></defs><title>m</title><path class="cls-1" d="M-1048,288.23a67.06,67.06,0,0,0-67.06,67.06A67.06,67.06,0,0,0-1048,422.35,67.06,67.06,0,0,0-981,355.29,67.06,67.06,0,0,0-1048,288.23Zm37.49,98.74a1.31,1.31,0,0,1-1.87,1.16l-23.27-11.64h0l-24-12V387a1.31,1.31,0,0,1-1.87,1.16l-23.27-11.64a1.29,1.29,0,0,1-.71-1.16V323.62a1.31,1.31,0,0,1,1.87-1.16l23.27,11.64,0.13,0.09,0.12,0.08a1.28,1.28,0,0,1,.21.23l0,0.05,8,12.45,15.66-24.09s0.06-.06.08-0.09l0.15-.16a1.26,1.26,0,0,1,.17-0.13,1.34,1.34,0,0,1,.23-0.11l0.23-.06,0.25,0h0.14a1.24,1.24,0,0,1,.4.12l23.27,11.64a1.28,1.28,0,0,1,.37.29l0.07,0.09a1.28,1.28,0,0,1,.21.39v0h0a1.29,1.29,0,0,1,.05.36V387Z" transform="translate(1115.1 -288.23)"/></svg>