<svg id="object" xmlns="http://www.w3.org/2000/svg" viewBox="0 0 134.12 134.12"><defs><style>.cls-1{fill:#fff;}</style></defs><title>r</title><path class="cls-1" d="M-1180.65,349l0,0q-1.85-.56-3.74-1a51.71,51.71,0,0,0-11.45-1.28,51.92,51.92,0,0,0-15.27,2.29c-6.42,2-12.62,5.62-16.59,11.18h0a16.68,16.68,0,0,0-3.2,9.65,14.29,14.29,0,0,0,.49,3.76h0a18.59,18.59,0,0,0,4,7.36,28.35,28.35,0,0,0,6.43,5.48c0.52,0.32,1,.63,1.58.93a46.35,46.35,0,0,0,22.59,5.51c1.33,0,2.66,0,4-.14,7.89-.65,15.82-3,22.23-7.74h0a25,25,0,0,0,5.42-5.41,17.51,17.51,0,0,0,3.09-6.92h0a13.73,13.73,0,0,0,.3-2.86,16.74,16.74,0,0,0-3.23-9.62C-1168,354.67-1174.22,351.05-1180.65,349Zm-34.82,19.26a6.17,6.17,0,0,1-1.15-3.55,5.51,5.51,0,0,1,.28-1.74h0a6,6,0,0,1,4.49-4h0a5.62,5.62,0,0,1,1.24-.14,6.19,6.19,0,0,1,4.15,1.67,5.66,5.66,0,0,1,1.88,4.14c0,0.08,0,.16,0,0.24V365a5.62,5.62,0,0,1-1.9,4.14,6.25,6.25,0,0,1-4.16,1.65,5.32,5.32,0,0,1-1.84-.33h-0.05A5.7,5.7,0,0,1-1215.47,368.3Zm37.49,13a3.21,3.21,0,0,1-.69,1.3,4.62,4.62,0,0,1-1,.86c-0.74.46-1.53,0.78-2.13,1.13l0,0h0a34.63,34.63,0,0,1-14.61,3.29,28.22,28.22,0,0,1-15.87-4.62,2.72,2.72,0,0,1-1.09-1.09,3.16,3.16,0,0,1-.38-1.5,3.09,3.09,0,0,1,.45-1.63,2.6,2.6,0,0,1,1.32-1.1l0.05,0a2.7,2.7,0,0,1,1.1-.25,3,3,0,0,1,1.19.26,6.79,6.79,0,0,1,1,.56,11.29,11.29,0,0,0,1.68,1h0a24,24,0,0,0,10.63,2.4,27.59,27.59,0,0,0,14-3.87,2.57,2.57,0,0,1,1.42-.43,3,3,0,0,1,1.65.5,3.19,3.19,0,0,1,1.14,1.29,2.75,2.75,0,0,1,.27,1.18A2.5,2.5,0,0,1-1178,381.27Zm1.63-12.93a5.68,5.68,0,0,1-3,2.15h0a5.35,5.35,0,0,1-1.76.29,6.25,6.25,0,0,1-3.81-1.34,5.76,5.76,0,0,1-2.15-3.49v0a0,0,0,0,0,0,0h0a5.13,5.13,0,0,1-.12-1.11,6,6,0,0,1,1.12-3.43,5.93,5.93,0,0,1,2.83-2.16h0a0,0,0,0,0,0,0,6,6,0,0,1,2-.36,6.28,6.28,0,0,1,3.49,1.07,5.63,5.63,0,0,1,2.25,2.9v0a0,0,0,0,0,0,0h0a5.21,5.21,0,0,1,.36,1.91A6.08,6.08,0,0,1-1176.35,368.34Z" transform="translate(1262.96 -292.27)"/><path class="cls-1" d="M-1171,330.93a5.15,5.15,0,0,0,1.63,3.47,5.22,5.22,0,0,0,3.51,1.48h0.31a5.27,5.27,0,0,0,3.56-1.47,5.11,5.11,0,0,0,1.66-3.49v0a2.93,2.93,0,0,0,0-.3,5.17,5.17,0,0,0-1.65-3.66,5.43,5.43,0,0,0-3.69-1.57,4.32,4.32,0,0,0-1.27.19h0a5.64,5.64,0,0,0-2.87,1.86,5,5,0,0,0-1.19,3.15c0,0.1,0,.21,0,0.32v0Z" transform="translate(1262.96 -292.27)"/><path class="cls-1" d="M-1227.37,351.06a7.58,7.58,0,0,0-3.12-.81c-0.17,0-.35,0-0.52,0h0a6.51,6.51,0,0,0-4.15,1.74,5.77,5.77,0,0,0-1.94,4v0h0c0,0.12,0,.25,0,0.37a5.35,5.35,0,0,0,.79,2.73,7.21,7.21,0,0,0,1.4,1.7A29.19,29.19,0,0,1-1227.37,351.06Z" transform="translate(1262.96 -292.27)"/><path class="cls-1" d="M-1155.22,353.78h0a5.91,5.91,0,0,0-2.48-2.6,7.22,7.22,0,0,0-3.52-.9,7.19,7.19,0,0,0-3.21.75,29.77,29.77,0,0,1,7.66,9.84,6.39,6.39,0,0,0,1.43-1.78,6.12,6.12,0,0,0,.75-2.86,5.13,5.13,0,0,0-.61-2.43h0Z" transform="translate(1262.96 -292.27)"/><path class="cls-1" d="M-1195.9,292.27A67.06,67.06,0,0,0-1263,359.33a67.06,67.06,0,0,0,67.06,67.06,67.06,67.06,0,0,0,67.06-67.06A67.06,67.06,0,0,0-1195.9,292.27Zm45.45,70.35a12.91,12.91,0,0,1-4.56,4.23,22.63,22.63,0,0,1,.19,2.76,22.87,22.87,0,0,1-4.69,13.74h0c-5.5,7.32-14,11.64-22.5,13.82h0a59.12,59.12,0,0,1-13.94,1.67,55.2,55.2,0,0,1-20.51-3.87h0c-6.77-2.79-13.21-7.22-17.16-13.71a22.37,22.37,0,0,1-3.29-11.61,20.87,20.87,0,0,1,.18-2.76,13.29,13.29,0,0,1-4.47-4.12,12.15,12.15,0,0,1-2.09-6.22v0a12.17,12.17,0,0,1,3.51-8.37,11.49,11.49,0,0,1,8.18-3.65h0.13c0.33,0,.66,0,1,0a12.9,12.9,0,0,1,4.64.83h0a15.58,15.58,0,0,1,3.67,2.08,11.28,11.28,0,0,1,1.21-.58c6.85-4.06,14.81-5.62,22.57-6.07,0.07-3.84.54-7.87,2.42-11.39a11.86,11.86,0,0,1,7.5-6h0a19.53,19.53,0,0,1,3.7-.35,25.83,25.83,0,0,1,9.55,2,11.84,11.84,0,0,1,5.51-4.49l0,0h0a13.87,13.87,0,0,1,4.11-.65,10.62,10.62,0,0,1,4.35.89h0a10.54,10.54,0,0,1,4.89,4,10.92,10.92,0,0,1,1.9,6.08,10.62,10.62,0,0,1-.07,1.21h0v0a10.6,10.6,0,0,1-3.69,7.07,11.36,11.36,0,0,1-7.38,2.85,9.32,9.32,0,0,1-1.31-.08,11,11,0,0,1-7-3.44,10.64,10.64,0,0,1-3-7.3c0-.13,0-0.27,0-0.41a19.77,19.77,0,0,0-7.86-2c-0.39,0-.77,0-1.15.06h0a6,6,0,0,0-4.74,3.26h0a19.74,19.74,0,0,0-1.67,8.83,50.79,50.79,0,0,1,22.06,6.21h0l0.1,0.06,0.58,0.32a12.91,12.91,0,0,1,1.51-1.1,12.45,12.45,0,0,1,6.88-2,12.83,12.83,0,0,1,3.19.41h0l0,0h0a12.78,12.78,0,0,1,6.38,4,12.14,12.14,0,0,1,3,7h0c0,0.21,0,.41,0,0.62A11.74,11.74,0,0,1-1150.45,362.61Z" transform="translate(1262.96 -292.27)"/></svg>