<svg id="object" xmlns="http://www.w3.org/2000/svg" viewBox="0 0 937.42 1299.96"><defs><style>.cls-1{fill:#fd5f00;}.cls-2{font-size:60px;}.cls-2,.cls-5{fill:#fff;}.cls-10,.cls-2,.cls-5,.cls-6{font-family:Myriad Pro;}.cls-3{fill:#464646;}.cls-4{fill:#959595;}.cls-5,.cls-6{font-size:24px;}.cls-11,.cls-12,.cls-13,.cls-14,.cls-15,.cls-16,.cls-17,.cls-18,.cls-7,.cls-9{fill:none;stroke-miterlimit:10;}.cls-11,.cls-12,.cls-13,.cls-14,.cls-15,.cls-16,.cls-17,.cls-18,.cls-7{stroke:#1c1c1c;}.cls-7{stroke-width:5px;}.cls-8{fill:#1c1c1c;}.cls-9{stroke:#000;}.cls-10{font-size:82.91px;}.cls-12{stroke-dasharray:11.9 11.9;}.cls-13{stroke-dasharray:11.77 11.77;}.cls-14{stroke-dasharray:11.81 11.81;}.cls-15{stroke-dasharray:10.78 10.78;}.cls-16{stroke-dasharray:11.48 11.48;}.cls-17{stroke-dasharray:12.33 12.33;}.cls-18{stroke-dasharray:12.31 12.31;}</style></defs><title>graph_eng</title><circle class="cls-1" cx="163.38" cy="744.6" r="163.38"/><text x="2117.73" y="-613.3"/><text class="cls-2" transform="translate(73.2 762.21)">S<tspan x="29.1" y="0">y</tspan><tspan x="57" y="0">s</tspan><tspan x="80.76" y="0">t</tspan><tspan x="100.26" y="0">em</tspan></text><circle class="cls-3" cx="494.65" cy="143.6" r="77.25"/><circle class="cls-4" cx="494.65" cy="321.83" r="77.25"/><text class="cls-5" transform="translate(466.54 154.16)">quest</text><text class="cls-6" transform="translate(466.14 332.4)">game</text><circle class="cls-3" cx="494.65" cy="508.55" r="77.25"/><circle class="cls-4" cx="494.65" cy="686.79" r="77.25"/><text class="cls-5" transform="translate(450.62 515.59)">message</text><text class="cls-6" transform="translate(446.97 693.83)">3d model</text><circle class="cls-3" cx="494.65" cy="866.24" r="77.25"/><circle class="cls-4" cx="494.65" cy="1044.47" r="77.25"/><text class="cls-5" transform="translate(462.18 876.8)">sticker</text><text class="cls-6" transform="translate(464.09 1055.04)">pho<tspan x="40.15" y="0">t</tspan><tspan x="47.95" y="0">o</tspan></text><circle class="cls-3" cx="494.65" cy="1222.71" r="77.25"/><text class="cls-5" transform="translate(466.7 1233.28)">video</text><path class="cls-7" d="M-1955.28,1194.52s275.4-1224.38,648.89-12.58" transform="translate(2117.73 -613.3)"/><polygon class="cls-8" points="798.27 568.9 816.59 585.8 822.07 561.48 798.27 568.9"/><text class="cls-6" transform="translate(442.71 20.09)">t<tspan x="7.8" y="0">okens</tspan></text><path class="cls-9" d="M-1413.64,1327.86s39.15-474.19-122-567.55" transform="translate(2117.73 -613.3)"/><polygon points="585.7 143.38 575.73 143.59 580.9 152.12 585.7 143.38"/><path class="cls-9" d="M-1424,1327.86s11.13-357.91-111-391.19" transform="translate(2117.73 -613.3)"/><polygon points="585.27 318.94 575.73 321.83 583 328.65 585.27 318.94"/><path class="cls-9" d="M-1440.53,1327.86s15.39-190.84-94.32-205.32" transform="translate(2117.73 -613.3)"/><polygon points="584.84 504.49 575.73 508.55 583.8 514.41 584.84 504.49"/><path class="cls-9" d="M-1440.79,1357.85s-33.38-62.24-105.05-58.36" transform="translate(2117.73 -613.3)"/><polygon points="572.96 681.16 564.73 686.79 573.72 691.11 572.96 681.16"/><path class="cls-9" d="M-1440.79,1377.34s11.8,78-95.16,100.81" transform="translate(2117.73 -613.3)"/><polygon points="582.19 859.62 574.73 866.24 584.19 869.39 582.19 859.62"/><path class="cls-9" d="M-1424.77,1377.34s21.12,202-111.92,277" transform="translate(2117.73 -613.3)"/><polygon points="579.93 1035.96 574.73 1044.47 584.7 1044.72 579.93 1035.96"/><path class="cls-9" d="M-1414.64,1384.65s46.28,315.05-123.35,435.43" transform="translate(2117.73 -613.3)"/><polygon points="578.07 1201.82 573.82 1210.84 583.76 1210.01 578.07 1201.82"/><circle class="cls-1" cx="803.45" cy="727.54" r="133.98"/><text class="cls-10" transform="translate(726.14 751.88)">U<tspan x="53.14" y="0">ser</tspan></text><path class="cls-11" d="M-1707.49,756.9s-0.16,2.07-.47,6" transform="translate(2117.73 -613.3)"/><path class="cls-12" d="M-1708.92,774.73c-6.79,83.29-37.12,434.14-73.69,535.66" transform="translate(2117.73 -613.3)"/><path class="cls-11" d="M-1784.72,1316q-1.18,2.93-2.36,5.51" transform="translate(2117.73 -613.3)"/><polygon class="cls-8" points="326.79 704.6 327.37 714.55 335.7 709.08 326.79 704.6"/><path class="cls-11" d="M-1697.14,966.91s-0.24,2.09-.72,6" transform="translate(2117.73 -613.3)"/><path class="cls-13" d="M-1699.32,984.55c-8.06,63.26-37.65,278.21-74.53,337.89" transform="translate(2117.73 -613.3)"/><path class="cls-11" d="M-1777.14,1327.32a44.34,44.34,0,0,1-3.87,4.58" transform="translate(2117.73 -613.3)"/><polygon class="cls-8" points="334.6 713.68 331.06 723.01 340.9 721.41 334.6 713.68"/><path class="cls-11" d="M-1707.49,1121.85s-0.13,2.13-.43,6" transform="translate(2117.73 -613.3)"/><path class="cls-14" d="M-1708.93,1139.59c-4.14,44.21-18.42,158.35-57.64,195.23" transform="translate(2117.73 -613.3)"/><path class="cls-11" d="M-1771.08,1338.64a44.3,44.3,0,0,1-5,3.28" transform="translate(2117.73 -613.3)"/><polygon class="cls-8" points="340.81 723.36 335.06 731.51 344.99 732.41 340.81 723.36"/><path class="cls-11" d="M-1707.49,1300.09s-1.45,1.67-4,4.43" transform="translate(2117.73 -613.3)"/><path class="cls-15" d="M-1719,1312.26c-11,11-28.57,26.84-46.49,36.52" transform="translate(2117.73 -613.3)"/><path class="cls-11" d="M-1770.35,1351.22q-2.76,1.3-5.5,2.37" transform="translate(2117.73 -613.3)"/><polygon class="cls-8" points="341.62 735 335.06 742.51 344.85 744.43 341.62 735"/><path class="cls-11" d="M-1707.49,1479.54s-0.26-2.18-.88-5.93" transform="translate(2117.73 -613.3)"/><path class="cls-16" d="M-1710.56,1462.34c-5.64-25.78-20.33-73.31-54.21-90.89" transform="translate(2117.73 -613.3)"/><path class="cls-11" d="M-1770,1369.05a59.23,59.23,0,0,0-5.67-2" transform="translate(2117.73 -613.3)"/><polygon class="cls-8" points="344.63 749.41 335.06 752.21 342.27 759.1 344.63 749.41"/><path class="cls-11" d="M-1707.49,1657.78s0-2.12-.06-6" transform="translate(2117.73 -613.3)"/><path class="cls-17" d="M-1707.86,1639.46c-1.68-52.51-11-203-63.06-252.58" transform="translate(2117.73 -613.3)"/><path class="cls-11" d="M-1775.56,1382.82q-2.37-1.9-4.86-3.52" transform="translate(2117.73 -613.3)"/><polygon class="cls-8" points="341.04 762.47 331.06 762.47 336.04 771.11 341.04 762.47"/><path class="cls-11" d="M-1709,1846.72s-0.15-2.09-.44-6" transform="translate(2117.73 -613.3)"/><path class="cls-18" d="M-1710.4,1828.47c-5.9-75.68-30.44-364-66.72-430.34" transform="translate(2117.73 -613.3)"/><path class="cls-11" d="M-1780.34,1392.89a31.07,31.07,0,0,0-3.84-4.6" transform="translate(2117.73 -613.3)"/><polygon class="cls-8" points="337.33 771.78 327.37 771.35 331.97 780.2 337.33 771.78"/></svg>