<svg id="object" xmlns="http://www.w3.org/2000/svg" viewBox="0 0 134.12 134.12"><defs><style>.cls-1{fill:#fff;}</style></defs><title>telegr</title><path class="cls-1" d="M-1050.52,220.78l-0.3-.14-0.15-.06a8.68,8.68,0,0,1-1.7-.9l-3.09-1.6a2.68,2.68,0,0,0-1-.24c-1.26,0-1.39,1.51-.66,3.28,0,0,4,8.81,4.37,9.88h0c0.35,0,4.37-6.55,4.37-6.55C-1047.38,222.5-1048.14,222-1050.52,220.78Z" transform="translate(1111.94 -137.51)"/><path class="cls-1" d="M-1044.88,137.51a67.06,67.06,0,0,0-67.06,67.06,67.06,67.06,0,0,0,67.06,67.06,67.06,67.06,0,0,0,67.06-67.06A67.06,67.06,0,0,0-1044.88,137.51Zm31.17,44.31-10.84,39.84c-0.3,1.13-.59,2.16-0.79,2.9-0.41,1.5-1.2,4.3-4.43,4.3a4.28,4.28,0,0,1-1.57-.3,4.88,4.88,0,0,1-.65-0.32l-3.32-1.36-7.11-2.89-1.42-.58a7.35,7.35,0,0,1-1.25,3.32c-4.43,7.21-5.24,8.51-7.94,8.51a4.32,4.32,0,0,1-4-2.77c-0.25-.66-2.37-5.4-4.27-9.61a0.64,0.64,0,0,0,0-.12c-1.08-2.61-1-5,.17-6.83,0.08-.12.19-0.19,0.28-0.31-0.23,0-.45,0-0.68,0a11,11,0,0,1-4-.73l-6.41-2.54c-3.74-1.49-4.28-4.26-4.34-5.39s0.18-3.95,3.75-5.83l50.2-26.31a7.44,7.44,0,0,1,3.48-.94,5.45,5.45,0,0,1,4.36,2.11A6.44,6.44,0,0,1-1013.7,181.82Z" transform="translate(1111.94 -137.51)"/><path class="cls-1" d="M-1018.92,178.14a3.26,3.26,0,0,0-1.51.45l-50.2,26.31c-2.06,1.1-2,2.68.19,3.53l6.4,2.54a6.91,6.91,0,0,0,2.49.43,8,8,0,0,0,4.79-1.48l27.84-22a5,5,0,0,1,1.47-1c0.18,0-.15.48-1,1.43l-22,23.56c-1.33,1.41-1.21,3.08.1,4.08l1.33,0.69,0.36,0.14c2.18,0.84,5.72,2.26,7.88,3.12l7.11,2.9c2.16,0.89,3.93,1.62,3.93,1.63s0,0,0,.06,0.53-1.85,1.14-4.08l10.83-39.84C-1017.35,179.08-1017.85,178.14-1018.92,178.14Z" transform="translate(1111.94 -137.51)"/></svg>