<svg id="object" xmlns="http://www.w3.org/2000/svg" viewBox="0 0 79.39 79.39"><defs><style>.cls-1{fill:#fff;}</style></defs><title>twit</title><path class="cls-1" d="M-931.68,164.19a39.7,39.7,0,0,0-39.7,39.7,39.7,39.7,0,0,0,39.7,39.7,39.7,39.7,0,0,0,39.7-39.7A39.7,39.7,0,0,0-931.68,164.19Zm18.7,32.5c0,0.41,0,.82,0,1.23a26.1,26.1,0,0,1-.66,5.73c-2.44,10.84-11.71,21.29-26.79,21.29a27.65,27.65,0,0,1-14.79-4.27,20,20,0,0,0,2.3.13,19.54,19.54,0,0,0,12-4.07,9.64,9.64,0,0,1-9-6.6,9.66,9.66,0,0,0,1.81.17,10,10,0,0,0,2.54-.33,9.63,9.63,0,0,1-7.08-5.87,9.32,9.32,0,0,1-.66-3.44v-0.12a9.74,9.74,0,0,0,4.37,1.19,9.46,9.46,0,0,1-4.29-7.9,9.35,9.35,0,0,1,1.31-4.77A27.53,27.53,0,0,0-932,199a9.58,9.58,0,0,1-.25-2.16,9.57,9.57,0,0,1,9.65-9.5,9.7,9.7,0,0,1,7,3,19.47,19.47,0,0,0,6.13-2.31,9.55,9.55,0,0,1-4.24,5.26,19.46,19.46,0,0,0,5.54-1.49A19.39,19.39,0,0,1-913,196.69Z" transform="translate(971.38 -164.19)"/></svg>